<svg xmlns="http://www.w3.org/2000/svg" viewBox="0 0 128 128">
  <defs>
    <linearGradient id="g" x1="0" y1="0" x2="1" y2="1">
      <stop offset="0" stop-color="#ffd166"/>
      <stop offset="1" stop-color="#3b82f6"/>
    </linearGradient>
  </defs>
  <rect x="12" y="12" width="104" height="104" rx="22" fill="#0b0f1a"/>
  <path d="M28 42c0-7.732 6.268-14 14-14h44c7.732 0 14 6.268 14 14v44c0 7.732-6.268 14-14 14H42c-7.732 0-14-6.268-14-14V42z" fill="url(#g)" opacity="0.18"/>
  <path d="M40 44h48v10H40V44zm0 18h48v10H40V62zm0 18h30v10H40V80z" fill="url(#g)"/>
  <path d="M86 80h6v10h-6V80z" fill="#ffd166"/>
  <path d="M34 26l8 6-8 6" fill="none" stroke="#ffd166" stroke-width="4" stroke-linecap="round" stroke-linejoin="round" opacity="0.7"/>
</svg>

